# xmcd
#
# Track frame offsets:
# 187
# 15067
# 32892
# 51432
# 63280
# 79032
# 94375
# 108887
# 127052
# 143437
# 156792
# 169825
# 182037
# 195577
# 211772
# 223330
# 236782
# 249140
#
# Disc length: 3550 seconds
#
#
# Revision: 0
# Processed by: cddbd v1.5.2PL0 Copyright (c) Steve Scherf et al.
# Submitted via: FreeRIP 2.945 
#
DISCID=f20ddc12
DTITLE=Varions - Motown's Biggest Pop Hits
DYEAR=1986
DGENRE=Soul
TTITLE0=Marvin Gaye  I Heard It Through The Grapevine
TTITLE1=Jacksons  I'll Be There
TTITLE2=Diana Ross  Upside Down
TTITLE3=Supremes  Baby Love
TTITLE4=Diana Ross  Ain't No Mountain High Enough
TTITLE5=Edwin Starr  War
TTITLE6=Stevie Winder  Fingertips Pt.II
TTITLE7=Marvin Gaye  Let's Get It On
TTITLE8=Commodores  Three Times A Lady
TTITLE9=Supremes  Love Child
TTITLE10=Temptations  I Can't Get Next To You
TTITLE11=Four Tops  I Can't Help Myself
TTITLE12=Smokey Robinson  Tears Of A Clown
TTITLE13=Eddie Kendricks  Keep On Truckin' Pt.I
TTITLE14=Supremes  Where Did Our Love Go
TTITLE15=Jacksons  ABC
TTITLE16=Supremes  Come See About Me
TTITLE17=Temptations  Just My Imagination
EXTD=
EXTT0=
EXTT1=
EXTT2=
EXTT3=
EXTT4=
EXTT5=
EXTT6=
EXTT7=
EXTT8=
EXTT9=
EXTT10=
EXTT11=
EXTT12=
EXTT13=
EXTT14=
EXTT15=
EXTT16=
EXTT17=
PLAYORDER=
